<?xml version="1.0" encoding="UTF-8"?>
<svg width="197px" height="45px" viewBox="0 0 197 45" version="1.1" xmlns="http://www.w3.org/2000/svg" xmlns:xlink="http://www.w3.org/1999/xlink">
    <defs></defs>
    <g id="Home" stroke="none" stroke-width="1" fill="none" fill-rule="evenodd">
        <g transform="translate(-150.000000, -19.000000)" id="Header">
            <g>
                <g id="logo-ayudas-subvenciones" transform="translate(150.000000, 19.000000)">
                    <path d="M49.8522571,14.3315695 C49.8522571,16.5723634 51.3854311,17.9075237 53.2958824,17.9075237 C57.8248431,17.9075237 57.8248431,10.7795237 53.2958824,10.7795237 C51.3854311,10.7795237 49.8522571,12.0907756 49.8522571,14.3315695 Z M56.8341329,8.46700458 L59.5937644,8.46700458 L59.5937644,20.2196305 L56.8810377,20.2196305 L56.7399155,18.5031725 C56.0795781,19.8861496 54.2629362,20.5535237 52.9659176,20.5770198 C49.5218845,20.6009282 46.974752,18.4557679 46.974752,14.3315695 C46.974752,10.2790962 49.6397582,8.15743206 53.0364787,8.18134046 C54.5933089,8.18134046 56.0795781,8.92043969 56.7399155,10.0882412 L56.8341329,8.46700458 Z" id="Fill-1" fill="#00B04F" fill-rule="evenodd"></path>
                    <polygon id="Fill-3" fill="#00B04F" fill-rule="evenodd" points="73.2498615 8.46716947 66.150112 25.1304977 62.9895468 25.1304977 65.1594019 20.0289405 60.5125675 8.46716947 63.8619754 8.46716947 65.6313046 13.5448183 66.7398884 16.8581924 67.9426896 13.6165435 70.06564 8.46716947"></polygon>
                    <path d="M77.7067112,8.46716947 L77.7067112,14.6173985 C77.7067112,16.4055817 78.673765,17.7642382 80.5136553,17.7642382 C82.2825766,17.7642382 83.4853778,16.2625435 83.4853778,14.4747725 L83.4853778,8.46716947 L86.3396346,8.46716947 L86.3396346,20.2432916 L83.7688458,20.2432916 L83.5800031,18.6463756 C82.3772019,19.8384977 81.2682101,20.4106504 79.6408188,20.4106504 C76.8575311,20.4106504 74.829206,18.2889863 74.829206,14.6417191 L74.829206,8.46716947 L77.7067112,8.46716947 Z" id="Fill-5" fill="#00B04F" fill-rule="evenodd"></path>
                    <path d="M91.221523,14.3315695 C91.221523,16.3819206 92.683728,17.7879817 94.5236182,17.7879817 C96.3398522,17.7879817 97.8966824,16.4532336 97.8966824,14.3315695 C97.8966824,12.2812183 96.3398522,10.8986534 94.5236182,10.8986534 C92.683728,10.8986534 91.221523,12.2099053 91.221523,14.3315695 L91.221523,14.3315695 Z M100.96303,3.55630229 L100.96303,20.2196305 L98.2743677,20.2196305 L98.0855251,18.5988061 C97.1890323,20.0052794 95.7504836,20.4817985 94.3351834,20.4817985 C90.9148066,20.4817985 88.3436099,18.1936 88.3436099,14.3315695 C88.3436099,10.2790962 90.867494,8.18134046 94.2642145,8.18134046 C95.490672,8.18134046 97.4011234,8.8487145 98.0855251,10.0643328 L98.0855251,3.55630229 L100.96303,3.55630229 Z" id="Fill-7" fill="#00B04F" fill-rule="evenodd"></path>
                    <path d="M105.703022,14.3315695 C105.703022,16.5723634 107.236195,17.9075237 109.146647,17.9075237 C113.675607,17.9075237 113.675607,10.7795237 109.146647,10.7795237 C107.236195,10.7795237 105.703022,12.0907756 105.703022,14.3315695 L105.703022,14.3315695 Z M112.684897,8.46700458 L115.444529,8.46700458 L115.444529,20.2196305 L112.731802,20.2196305 L112.59068,18.5031725 C111.930342,19.8861496 110.113701,20.5535237 108.816682,20.5770198 C105.372649,20.6009282 102.825516,18.4557679 102.825516,14.3315695 C102.825516,10.2790962 105.490523,8.15743206 108.887651,8.18134046 C110.444073,8.18134046 111.930342,8.92043969 112.59068,10.0882412 L112.684897,8.46700458 Z" id="Fill-9" fill="#00B04F" fill-rule="evenodd"></path>
                    <path d="M125.46824,11.5901832 C124.643124,10.8032672 123.699318,10.5410992 122.590734,10.5410992 C121.222747,10.5410992 120.467784,10.9702137 120.467784,11.709313 C120.467784,12.4723206 121.151778,12.9014351 122.638047,12.9966565 C124.831151,13.1396947 127.614846,13.6401221 127.614846,16.7630534 C127.614846,18.837313 125.940142,20.625084 122.614391,20.625084 C120.7745,20.625084 118.93461,20.3150992 117.23625,18.5273282 L118.65155,16.4530687 C119.477482,17.3830229 121.363869,18.0743053 122.661295,18.0982137 C123.746223,18.1221221 124.760997,17.5499695 124.760997,16.6913282 C124.760997,15.880916 124.100252,15.5474351 122.449204,15.4518015 C120.255693,15.284855 117.637592,14.474855 117.637592,11.8049466 C117.637592,9.08722137 120.420471,8.13335878 122.543422,8.13335878 C124.359656,8.13335878 125.728051,8.49116031 127.072382,9.68328244 L125.46824,11.5901832 Z" id="Fill-11" fill="#00B04F" fill-rule="evenodd"></path>
                    <path d="M55.2064969,31.6666824 C54.3809731,30.8801786 53.4375756,30.6175985 52.3289917,30.6175985 C50.9610041,30.6175985 50.2060414,31.046713 50.2060414,31.7858122 C50.2060414,32.5488198 50.8900352,32.9779344 52.3763043,33.0731557 C54.5698157,33.2161939 57.3531035,33.7170336 57.3531035,36.8395527 C57.3531035,38.9134 55.6783996,40.7015832 52.3522402,40.7015832 C50.5127578,40.7015832 48.6728675,40.3915985 46.9745072,38.6034153 L48.3898075,36.5295679 C49.2153313,37.4595221 51.1021263,38.1503924 52.3995528,38.174713 C53.4844803,38.1986214 54.4988468,37.6264687 54.4988468,36.7682397 C54.4988468,35.9574153 53.8385093,35.6239344 52.1874617,35.5283008 C49.9939503,35.3617664 47.375441,34.550942 47.375441,31.8814458 C47.375441,29.1637206 50.1591366,28.209858 52.2816791,28.209858 C54.097913,28.209858 55.4659006,28.5672473 56.8106398,29.7593695 L55.2064969,31.6666824 Z" id="Fill-13" fill="#1B497C" fill-rule="evenodd"></path>
                    <path d="M62.1404482,28.5436687 L62.1404482,34.6943099 C62.1404482,36.4820809 63.1075021,37.8407374 64.9473923,37.8407374 C66.7163137,37.8407374 67.9191149,36.3390427 67.9191149,34.5508595 L67.9191149,28.5436687 L70.7733716,28.5436687 L70.7733716,40.3197908 L68.2025828,40.3197908 L68.0137402,38.7228748 C66.8109389,39.9145847 65.7019472,40.4871496 64.0745559,40.4871496 C61.2912681,40.4871496 59.2629431,38.3650733 59.2629431,34.7182183 L59.2629431,28.5436687 L62.1404482,28.5436687 Z" id="Fill-15" fill="#1B497C" fill-rule="evenodd"></path>
                    <path d="M76.3863217,34.4080687 C76.3863217,36.5293206 77.943152,37.8648931 79.7593859,37.8648931 C81.5992762,37.8648931 83.0614812,36.4584198 83.0614812,34.4080687 C83.0614812,32.2864046 81.5992762,30.9751527 79.7593859,30.9751527 C77.943152,30.9751527 76.3863217,32.3577176 76.3863217,34.4080687 L76.3863217,34.4080687 Z M76.197887,23.6328015 L76.197887,30.1408321 C76.8818807,28.9252137 78.7923321,28.2578397 80.0187896,28.2578397 C83.4155101,28.2578397 85.9393942,30.3555954 85.9393942,34.4080687 C85.9393942,38.269687 83.3681975,40.5582977 79.9478207,40.5582977 C78.5329284,40.5582977 77.0939718,40.0817786 76.197887,38.6753053 L76.0090443,40.2961298 L73.3199739,40.2961298 L73.3199739,23.6328015 L76.197887,23.6328015 Z" id="Fill-17" fill="#1B497C" fill-rule="evenodd"></path>
                    <polygon id="Fill-19" fill="#1B497C" fill-rule="evenodd" points="99.6429263 28.5199252 94.6893756 40.3438641 91.576123 40.3438641 86.5993238 28.5199252 89.7362327 28.5199252 91.3403756 32.4058641 93.1329532 37.363971 94.9018745 32.4532687 96.5060174 28.5199252"></polygon>
                    <path d="M109.807963,33.0494534 C109.61912,31.5238504 108.439976,30.7604305 106.788928,30.7604305 C105.23169,30.7604305 103.958328,31.5238504 103.533737,33.0494534 L109.807963,33.0494534 Z M103.486425,35.4571939 C103.675267,36.9110718 104.925381,37.9601557 106.954114,37.9601557 C108.014978,37.9601557 109.407029,37.5549496 110.067775,36.863255 L111.907257,38.6988427 C110.6808,39.9861863 108.676131,40.6061557 106.906802,40.6061557 C102.897056,40.6061557 100.514702,38.1031939 100.514702,34.3363847 C100.514702,30.7604305 102.920305,28.1861557 106.694303,28.1861557 C110.586174,28.1861557 113.015841,30.6178046 112.568002,35.4571939 L103.486425,35.4571939 Z" id="Fill-21" fill="#1B497C" fill-rule="evenodd"></path>
                    <path d="M123.345656,40.2962122 L123.345656,34.1459832 C123.345656,32.3578 122.378602,30.9991435 120.538712,30.9991435 C118.769791,30.9991435 117.56699,32.5008382 117.56699,34.2890214 L117.56699,40.2962122 L114.712733,40.2962122 L114.712733,28.5200901 L117.28393,28.5200901 L117.472772,30.1174183 C118.651917,28.9492046 119.83147,28.3527313 121.293675,28.3527313 C124.02965,28.3527313 126.223569,30.4269908 126.223569,34.1216626 L126.223569,40.2962122 L123.345656,40.2962122 Z" id="Fill-23" fill="#1B497C" fill-rule="evenodd"></path>
                    <path d="M138.676539,38.7942702 C137.332208,40.1290183 135.916907,40.6537664 134.195299,40.6537664 C130.821827,40.6537664 128.014883,38.6034153 128.014883,34.4318122 C128.014883,30.2602092 130.821827,28.209858 134.195299,28.209858 C135.846346,28.209858 137.120117,28.6863771 138.393887,29.9502244 L136.577653,31.8810336 C135.893251,31.2614763 135.044479,30.9514916 134.242204,30.9514916 C132.308096,30.9514916 130.892796,32.3814611 130.892796,34.4318122 C130.892796,36.6730183 132.402313,37.8647282 134.195299,37.8647282 C135.11504,37.8647282 136.034781,37.6021481 136.742431,36.8873695 L138.676539,38.7942702 Z" id="Fill-25" fill="#1B497C" fill-rule="evenodd"></path>
                    <path d="M139.949534,40.2963359 L142.827039,40.2963359 L142.827039,28.4963053 L139.949534,28.4963053 L139.949534,40.2963359 Z M143.086443,25.2303359 C143.086443,27.4950382 139.689723,27.4950382 139.689723,25.2303359 C139.689723,22.9656336 143.086443,22.9656336 143.086443,25.2303359 L143.086443,25.2303359 Z" id="Fill-27" fill="#1B497C" fill-rule="evenodd"></path>
                    <path d="M148.015685,34.4318122 C148.015685,36.2199954 149.077364,37.8886366 151.176658,37.8886366 C153.275544,37.8886366 154.337223,36.2199954 154.337223,34.4318122 C154.337223,32.6679496 153.110766,30.9514916 151.176658,30.9514916 C149.100612,30.9514916 148.015685,32.6679496 148.015685,34.4318122 M157.238385,34.4318122 C157.238385,37.8169115 154.950656,40.5581328 151.176658,40.5581328 C147.40266,40.5581328 145.13818,37.8169115 145.13818,34.4318122 C145.13818,31.0706214 147.449565,28.3054916 151.152594,28.3054916 C154.856031,28.3054916 157.238385,31.0706214 157.238385,34.4318122" id="Fill-29" fill="#1B497C" fill-rule="evenodd"></path>
                    <path d="M167.780903,40.2962122 L167.780903,34.1459832 C167.780903,32.3578 166.813849,30.9991435 164.973959,30.9991435 C163.205037,30.9991435 162.002236,32.5008382 162.002236,34.2890214 L162.002236,40.2962122 L159.14798,40.2962122 L159.14798,28.5200901 L161.719176,28.5200901 L161.908019,30.1174183 C163.087164,28.9492046 164.266717,28.3527313 165.728922,28.3527313 C168.464897,28.3527313 170.658816,30.4269908 170.658816,34.1216626 L170.658816,40.2962122 L167.780903,40.2962122 Z" id="Fill-30" fill="#1B497C" fill-rule="evenodd"></path>
                    <path d="M181.908903,33.0494534 C181.72006,31.5238504 180.540915,30.7604305 178.889867,30.7604305 C177.333037,30.7604305 176.059267,31.5238504 175.634677,33.0494534 L181.908903,33.0494534 Z M175.587364,35.4571939 C175.776207,36.9110718 177.026321,37.9601557 179.055054,37.9601557 C180.115917,37.9601557 181.507969,37.5549496 182.168714,36.863255 L184.008197,38.6988427 C182.781739,39.9861863 180.77707,40.6061557 179.007741,40.6061557 C174.997996,40.6061557 172.615642,38.1031939 172.615642,34.3363847 C172.615642,30.7604305 175.021244,28.1861557 178.795242,28.1861557 C182.687114,28.1861557 185.116781,30.6178046 184.668942,35.4571939 L175.587364,35.4571939 Z" id="Fill-31" fill="#1B497C" fill-rule="evenodd"></path>
                    <path d="M194.479909,31.6666824 C193.654793,30.8801786 192.710988,30.6175985 191.602404,30.6175985 C190.234416,30.6175985 189.479454,31.046713 189.479454,31.7858122 C189.479454,32.5488198 190.163447,32.9779344 191.649717,33.0731557 C193.84282,33.2161939 196.626516,33.7170336 196.626516,36.8395527 C196.626516,38.9134 194.951812,40.7015832 191.62606,40.7015832 C189.78617,40.7015832 187.94628,40.3915985 186.247919,38.6034153 L187.66322,36.5295679 C188.489151,37.4595221 190.375539,38.1503924 191.672965,38.174713 C192.757893,38.1986214 193.772667,37.6264687 193.772667,36.7682397 C193.772667,35.9574153 193.111922,35.6239344 191.460874,35.5283008 C189.267363,35.3617664 186.649261,34.550942 186.649261,31.8814458 C186.649261,29.1637206 189.432141,28.209858 191.555091,28.209858 C193.371325,28.209858 194.739721,28.5672473 196.084052,29.7593695 L194.479909,31.6666824 Z" id="Fill-32" fill="#1B497C" fill-rule="evenodd"></path>
                    <path d="M30.3853126,35.5798687 C24.3908841,41.0849832 15.2840186,40.9279298 9.49760248,35.3918992 C3.53335611,29.6831511 2.95540787,20.5303573 8.16999379,14.1365099 C13.4090518,7.71463206 21.8029648,7.22409771 27.2757308,10.3321893 C27.2932692,10.1969832 27.3850393,11.5746015 27.3699482,12.3169985 C27.303058,12.3821282 25.7356232,11.7081588 25.6373271,11.6624031 C24.4275921,11.1133344 23.1713602,10.7382198 21.8580269,10.5622046 C19.3794161,10.2336702 16.9864576,10.5469527 14.6958737,11.5614107 C12.832735,12.385426 11.2192112,13.5664183 9.89201035,15.124174 C8.03254244,17.3113802 6.91498551,19.8324794 6.64253002,22.7122046 C6.36885093,25.6133649 6.94720704,28.3294412 8.39513665,30.8526015 C9.47272257,32.731884 10.9124948,34.269029 12.7115983,35.4483725 C15.1877619,37.0741435 17.9057909,37.804174 20.8571201,37.6293954 C23.3977267,37.4793496 25.7050331,36.639258 27.786381,35.1589985 C29.2812153,34.095487 30.5007391,32.780113 31.467793,31.2169985 C32.9397867,28.8327542 33.607058,26.2353954 33.4904079,23.4302809 C33.4149524,21.6243725 32.9911781,19.9025557 32.2252029,18.2697771 C32.1191573,18.045945 31.205942,16.4370748 31.205942,16.329487 C32.5225383,16.3760672 32.98506,16.3669985 33.5829938,16.3517466 C36.5457433,21.4417618 36.4678406,29.9898382 30.3853126,35.5798687 M24.9949358,29.9844794 C21.9893602,32.5529832 17.505265,32.4293191 14.6249048,29.5533038 C11.813882,26.7510748 11.5862919,22.1215023 14.1322008,19.0727695 C16.7478551,15.9415939 20.9794803,15.5763725 23.8325135,17.3220977 L22.4441325,18.8485252 C21.0561594,18.3002809 19.3916522,18.1003573 17.9991925,18.6189221 C14.6750725,19.8539145 13.2748634,23.9842962 15.1192402,27.0355023 C16.3477371,29.0697771 18.6081387,30.1345252 20.8008344,29.7948611 C23.3336915,29.4049069 25.1425839,27.6851511 25.6691408,25.2168153 C25.9163085,24.0584947 25.8110787,22.9113038 25.3310186,21.8185252 C25.2123292,21.5477008 24.9618986,21.3564336 25.1768447,21.1581588 C25.563911,20.8028305 26.1410435,20.2822046 26.5309648,19.8802962 C28.340265,22.7286931 28.155501,27.2828305 24.9949358,29.9844794 M29.6319814,16.8736092 L30.9620373,20.2855023 C32.0335052,23.6627695 31.7410642,26.9068916 29.962354,29.9754107 C28.4923996,32.5084641 26.3494638,34.2418229 23.5926874,35.1367389 C20.7013147,36.076174 17.8511366,35.8828458 15.0906894,34.5732427 C13.1932899,33.6733802 11.6605238,32.3308 10.4883126,30.5871359 C9.28469565,28.7948305 8.62476605,26.8050748 8.52320704,24.6335328 C8.42695031,22.5320672 8.83971222,20.5456092 9.8010559,18.6811664 C10.9165735,16.5149832 12.5529379,14.8624183 14.6852692,13.7168763 C16.3403954,12.8297924 18.1182899,12.3940824 19.9920331,12.385426 C21.4615797,12.3775939 22.8870766,12.6364641 24.2522091,13.1970748 C24.3350062,13.2304641 26.5203602,14.4098076 26.5203602,14.4840061 C26.1226894,14.9011664 26.4253271,14.6163267 25.0634576,16.0854565 C19.9834679,13.5552885 14.2423251,15.2053802 11.9860021,18.7644336 C9.46211801,22.7414718 10.1004306,27.746571 13.2703768,30.9259756 C16.5361718,34.2006015 21.4648427,34.6849527 25.3371366,32.139945 C28.8660062,29.8224794 30.5974037,23.5749679 28.0135631,18.4293038 C28.2888737,18.1209679 29.5267516,16.9671817 29.6319814,16.8736092 M20.0499503,3.78788397 C8.97716356,3.78788397 0,12.8615328 0,24.0510748 C0,35.2430901 8.97716356,44.3150901 20.0499503,44.3150901 C31.1219213,44.3150901 40.0990849,35.2430901 40.0990849,24.0510748 C40.0990849,12.8615328 31.1219213,3.78788397 20.0499503,3.78788397" id="Fill-45" fill="#00B04F" fill-rule="evenodd"></path>
                    <path d="M34.9326273,1.69420916 L34.9326273,2.43743053 C34.9318116,3.88801069 34.9195756,5.33776641 34.9420083,6.78669771 C34.9456791,7.0113542 35.0717101,7.25827023 35.2050828,7.45077405 C35.9376128,8.52623969 36.9336253,8.91454504 38.233499,8.77191908 C39.2784555,8.65773588 40.3421739,8.7484229 41.4009979,8.7484229 L41.9536584,8.7484229 C41.7611449,8.95823969 41.6628489,9.07736947 41.551501,9.18825496 C39.4289586,11.3457817 37.3039689,13.5012473 35.1895839,15.6670183 C34.9395611,15.9242397 34.6928012,16.0454305 34.3257205,16.0384229 C32.9385631,16.0153389 31.5514058,16.0132779 30.1634327,16.0384229 C29.9264617,16.0437817 29.63606,16.1567282 29.4692422,16.3232626 C27.4274576,18.3583618 25.4064741,20.4153084 23.3716232,22.4615374 C23.1725839,22.6589878 23.1052857,22.8312931 23.1958323,23.126026 C23.8231325,25.1264992 22.6986418,27.1261481 20.660528,27.6739802 C18.7896398,28.1768809 16.7776294,26.8957206 16.3616046,24.9323466 C15.8256667,22.4314458 18.1036066,20.1304687 20.5732443,20.7001481 C20.9019855,20.7788809 21.0928675,20.7063313 21.3139317,20.4808504 C23.3455197,18.4131863 25.3938302,16.3591252 27.4184845,14.283629 C27.5914203,14.1059649 27.7064389,13.7939191 27.7129648,13.5412321 C27.7406998,12.1083771 27.7190828,10.6763466 27.7398841,9.24060611 C27.7406998,9.04068244 27.8137081,8.78634656 27.9507516,8.64907939 C30.1956542,6.36912519 32.4601346,4.10483511 34.7201284,1.83807176 C34.751942,1.80591908 34.7955839,1.78695725 34.9326273,1.69420916" id="Fill-46" fill="#FEFEFE" fill-rule="evenodd"></path>
                    <path d="M34.9326273,1.69420916 L34.9326273,2.43743053 C34.9318116,3.88801069 34.9195756,5.33776641 34.9420083,6.78669771 C34.9456791,7.0113542 35.0717101,7.25827023 35.2050828,7.45077405 C35.9376128,8.52623969 36.9336253,8.91454504 38.233499,8.77191908 C39.2784555,8.65773588 40.3421739,8.7484229 41.4009979,8.7484229 L41.9536584,8.7484229 C41.7611449,8.95823969 41.6628489,9.07736947 41.551501,9.18825496 C39.4289586,11.3457817 37.3039689,13.5012473 35.1895839,15.6670183 C34.9395611,15.9242397 34.6928012,16.0454305 34.3257205,16.0384229 C32.9385631,16.0153389 31.5514058,16.0132779 30.1634327,16.0384229 C29.9264617,16.0437817 29.63606,16.1567282 29.4692422,16.3232626 C27.4274576,18.3583618 25.4064741,20.4153084 23.3716232,22.4615374 C23.1725839,22.6589878 23.1052857,22.8312931 23.1958323,23.126026 C23.8231325,25.1264992 22.6986418,27.1261481 20.660528,27.6739802 C18.7896398,28.1768809 16.7776294,26.8957206 16.3616046,24.9323466 C15.8256667,22.4314458 18.1036066,20.1304687 20.5732443,20.7001481 C20.9019855,20.7788809 21.0928675,20.7063313 21.3139317,20.4808504 C23.3455197,18.4131863 25.3938302,16.3591252 27.4184845,14.283629 C27.5914203,14.1059649 27.7064389,13.7939191 27.7129648,13.5412321 C27.7406998,12.1083771 27.7190828,10.6763466 27.7398841,9.24060611 C27.7406998,9.04068244 27.8137081,8.78634656 27.9507516,8.64907939 C30.1956542,6.36912519 32.4601346,4.10483511 34.7201284,1.83807176 C34.751942,1.80591908 34.7955839,1.78695725 34.9326273,1.69420916 Z" id="Stroke-47" stroke="#00B04F" stroke-width="1.802"></path>
                </g>
            </g>
        </g>
    </g>
</svg>